<svg width="80" height="80" viewBox="0 0 65 65" fill="none" xmlns="http://www.w3.org/2000/svg">
<rect width="80" height="80"/>
<circle cx="33" cy="33" r="33" fill="url(#paint0_linear_0_1)"/>
<path d="M14.5412 39V18.6364H19.4631V26.8097H27.4872V18.6364H32.3991V39H27.4872V30.8168H19.4631V39H14.5412ZM45.4901 25.2884C45.3775 24.8707 45.2117 24.5028 44.993 24.1847C44.7742 23.8598 44.5058 23.5848 44.1876 23.3594C43.8694 23.134 43.5048 22.965 43.0938 22.8523C42.6829 22.733 42.2321 22.6733 41.7416 22.6733C40.7539 22.6733 39.8988 22.9119 39.1762 23.3892C38.4603 23.8665 37.9068 24.5625 37.5157 25.4773C37.1246 26.3854 36.9291 27.4891 36.9291 28.7884C36.9291 30.0942 37.118 31.2079 37.4958 32.1293C37.8737 33.0507 38.4205 33.7533 39.1364 34.2372C39.8524 34.7211 40.7207 34.9631 41.7416 34.9631C42.6431 34.9631 43.4054 34.8172 44.0285 34.5256C44.6582 34.2273 45.1355 33.8063 45.4603 33.2628C45.7851 32.7192 45.9475 32.0795 45.9475 31.3438L46.8623 31.4531H41.9106V27.8636H50.6904V30.5582C50.6904 32.3812 50.3026 33.9422 49.5271 35.2415C48.7581 36.5407 47.6975 37.5384 46.3453 38.2344C44.9996 38.9304 43.4518 39.2784 41.7018 39.2784C39.7596 39.2784 38.0526 38.8575 36.5811 38.0156C35.1095 37.1738 33.9627 35.974 33.1407 34.4162C32.3187 32.8518 31.9078 30.9957 31.9078 28.848C31.9078 27.1776 32.1563 25.696 32.6535 24.4034C33.1507 23.1042 33.8434 22.0038 34.7316 21.1023C35.6265 20.2008 36.6606 19.518 37.8339 19.054C39.0138 18.59 40.2832 18.358 41.6421 18.358C42.8221 18.358 43.9191 18.527 44.9333 18.8651C45.9542 19.2031 46.8557 19.6804 47.6379 20.2969C48.4267 20.9134 49.0664 21.6458 49.5569 22.4943C50.0474 23.3428 50.3524 24.2741 50.4717 25.2884H45.4901Z" fill="white"/>
<path d="M11.4867 42C8.98673 49.1667 14.8867 59.2 58.4867 42" stroke="white"/>
<path d="M56 52.4971C58.5 45.3304 52.6 35.2971 8.99999 52.4971" stroke="white"/>
<path d="M42 4L42.8981 6.76393H45.8042L43.4531 8.47214L44.3511 11.2361L42 9.52786L39.6489 11.2361L40.5469 8.47214L38.1958 6.76393H41.1019L42 4Z" fill="white"/>
<path d="M51.5 9L52.2858 11.4184H54.8287L52.7714 12.9131L53.5572 15.3316L51.5 13.8369L49.4428 15.3316L50.2286 12.9131L48.1713 11.4184H50.7142L51.5 9Z" fill="white"/>
<path d="M58 18L58.6735 20.0729H60.8532L59.0898 21.3541L59.7634 23.4271L58 22.1459L56.2366 23.4271L56.9102 21.3541L55.1468 20.0729H57.3265L58 18Z" fill="white"/>
<defs>
<linearGradient id="paint0_linear_0_1" x1="33" y1="0" x2="33" y2="66" gradientUnits="userSpaceOnUse">
<stop stop-color="#456B74"/>
<stop offset="1" stop-color="#18859D"/>
</linearGradient>
</defs>
</svg>
